<svg width="881" height="203" viewBox="0 0 881 203" fill="none" xmlns="http://www.w3.org/2000/svg">
<rect x="318" width="563" height="203" fill="#131313"/>
<path d="M56.256 40.8H68.736V108H56.256V40.8ZM21.504 108H9.024V40.8H21.504V108ZM57.216 79.2H20.448V68.544H57.216V79.2ZM117.175 108V97.632L116.503 95.424V77.28C116.503 73.76 115.447 71.04 113.335 69.12C111.223 67.136 108.023 66.144 103.735 66.144C100.855 66.144 98.0068 66.592 95.1908 67.488C92.4388 68.384 90.1028 69.632 88.1828 71.232L83.4788 62.496C86.2308 60.384 89.4948 58.816 93.2708 57.792C97.1108 56.704 101.079 56.16 105.175 56.16C112.599 56.16 118.327 57.952 122.359 61.536C126.455 65.056 128.503 70.528 128.503 77.952V108H117.175ZM101.047 108.672C97.2068 108.672 93.8468 108.032 90.9668 106.752C88.0868 105.408 85.8468 103.584 84.2468 101.28C82.7108 98.912 81.9428 96.256 81.9428 93.312C81.9428 90.432 82.6148 87.84 83.9588 85.536C85.3668 83.232 87.6388 81.408 90.7748 80.064C93.9108 78.72 98.0708 78.048 103.255 78.048H118.135V86.016H104.119C100.023 86.016 97.2708 86.688 95.8628 88.032C94.4548 89.312 93.7508 90.912 93.7508 92.832C93.7508 95.008 94.6148 96.736 96.3428 98.016C98.0708 99.296 100.471 99.936 103.543 99.936C106.487 99.936 109.111 99.264 111.415 97.92C113.783 96.576 115.479 94.592 116.503 91.968L118.519 99.168C117.367 102.176 115.287 104.512 112.279 106.176C109.335 107.84 105.591 108.672 101.047 108.672ZM159.743 108.672C155.455 108.672 151.327 108.128 147.359 107.04C143.455 105.888 140.351 104.512 138.047 102.912L142.655 93.792C144.959 95.264 147.711 96.48 150.911 97.44C154.111 98.4 157.311 98.88 160.511 98.88C164.287 98.88 167.007 98.368 168.671 97.344C170.399 96.32 171.263 94.944 171.263 93.216C171.263 91.808 170.687 90.752 169.535 90.048C168.383 89.28 166.879 88.704 165.023 88.32C163.167 87.936 161.087 87.584 158.783 87.264C156.543 86.944 154.271 86.528 151.967 86.016C149.727 85.44 147.679 84.64 145.823 83.616C143.967 82.528 142.463 81.088 141.311 79.296C140.159 77.504 139.583 75.136 139.583 72.192C139.583 68.928 140.511 66.112 142.367 63.744C144.223 61.312 146.815 59.456 150.143 58.176C153.535 56.832 157.535 56.16 162.143 56.16C165.599 56.16 169.087 56.544 172.607 57.312C176.127 58.08 179.039 59.168 181.343 60.576L176.735 69.696C174.303 68.224 171.839 67.232 169.343 66.72C166.911 66.144 164.479 65.856 162.047 65.856C158.399 65.856 155.679 66.4 153.887 67.488C152.159 68.576 151.295 69.952 151.295 71.616C151.295 73.152 151.871 74.304 153.023 75.072C154.175 75.84 155.679 76.448 157.535 76.896C159.391 77.344 161.439 77.728 163.679 78.048C165.983 78.304 168.255 78.72 170.495 79.296C172.735 79.872 174.783 80.672 176.639 81.696C178.559 82.656 180.095 84.032 181.247 85.824C182.399 87.616 182.975 89.952 182.975 92.832C182.975 96.032 182.015 98.816 180.095 101.184C178.239 103.552 175.583 105.408 172.127 106.752C168.671 108.032 164.543 108.672 159.743 108.672ZM224.894 108V97.632L224.222 95.424V77.28C224.222 73.76 223.166 71.04 221.054 69.12C218.942 67.136 215.742 66.144 211.454 66.144C208.574 66.144 205.726 66.592 202.91 67.488C200.158 68.384 197.822 69.632 195.902 71.232L191.198 62.496C193.95 60.384 197.214 58.816 200.99 57.792C204.83 56.704 208.798 56.16 212.894 56.16C220.318 56.16 226.046 57.952 230.078 61.536C234.174 65.056 236.222 70.528 236.222 77.952V108H224.894ZM208.766 108.672C204.926 108.672 201.566 108.032 198.686 106.752C195.806 105.408 193.566 103.584 191.966 101.28C190.43 98.912 189.662 96.256 189.662 93.312C189.662 90.432 190.334 87.84 191.678 85.536C193.086 83.232 195.358 81.408 198.494 80.064C201.63 78.72 205.79 78.048 210.974 78.048H225.854V86.016H211.838C207.742 86.016 204.99 86.688 203.582 88.032C202.174 89.312 201.47 90.912 201.47 92.832C201.47 95.008 202.334 96.736 204.062 98.016C205.79 99.296 208.19 99.936 211.262 99.936C214.206 99.936 216.83 99.264 219.134 97.92C221.502 96.576 223.198 94.592 224.222 91.968L226.238 99.168C225.086 102.176 223.006 104.512 219.998 106.176C217.054 107.84 213.31 108.672 208.766 108.672ZM280.71 56.16C284.806 56.16 288.454 56.96 291.654 58.56C294.918 60.16 297.478 62.624 299.334 65.952C301.19 69.216 302.118 73.44 302.118 78.624V108H290.118V80.16C290.118 75.616 289.03 72.224 286.854 69.984C284.742 67.744 281.766 66.624 277.926 66.624C275.11 66.624 272.614 67.2 270.438 68.352C268.262 69.504 266.566 71.232 265.35 73.536C264.198 75.776 263.622 78.624 263.622 82.08V108H251.622V56.736H263.046V70.56L261.03 66.336C262.822 63.072 265.414 60.576 268.806 58.848C272.262 57.056 276.23 56.16 280.71 56.16Z" fill="#768FA5"/>
<path d="M318.493 108V40.8H328.765L358.141 89.856H352.765L381.661 40.8H391.933L392.029 108H380.221L380.125 59.328H382.621L358.045 100.32H352.477L327.517 59.328H330.397V108H318.493ZM438.116 56.16C442.212 56.16 445.86 56.96 449.06 58.56C452.324 60.16 454.884 62.624 456.74 65.952C458.596 69.216 459.524 73.44 459.524 78.624V108H447.524V80.16C447.524 75.616 446.436 72.224 444.26 69.984C442.148 67.744 439.172 66.624 435.332 66.624C432.516 66.624 430.02 67.2 427.844 68.352C425.668 69.504 423.972 71.232 422.756 73.536C421.604 75.776 421.028 78.624 421.028 82.08V108H409.028V36.768H421.028V70.56L418.436 66.336C420.228 63.072 422.82 60.576 426.212 58.848C429.668 57.056 433.636 56.16 438.116 56.16ZM497.881 108.672C492.633 108.672 487.961 107.552 483.865 105.312C479.769 103.008 476.537 99.872 474.169 95.904C471.801 91.936 470.617 87.424 470.617 82.368C470.617 77.248 471.801 72.736 474.169 68.832C476.537 64.864 479.769 61.76 483.865 59.52C487.961 57.28 492.633 56.16 497.881 56.16C503.193 56.16 507.897 57.28 511.993 59.52C516.153 61.76 519.385 64.832 521.689 68.736C524.057 72.64 525.241 77.184 525.241 82.368C525.241 87.424 524.057 91.936 521.689 95.904C519.385 99.872 516.153 103.008 511.993 105.312C507.897 107.552 503.193 108.672 497.881 108.672ZM497.881 98.4C500.825 98.4 503.449 97.76 505.753 96.48C508.057 95.2 509.849 93.344 511.129 90.912C512.473 88.48 513.145 85.632 513.145 82.368C513.145 79.04 512.473 76.192 511.129 73.824C509.849 71.392 508.057 69.536 505.753 68.256C503.449 66.976 500.857 66.336 497.977 66.336C495.033 66.336 492.409 66.976 490.105 68.256C487.865 69.536 486.073 71.392 484.729 73.824C483.385 76.192 482.713 79.04 482.713 82.368C482.713 85.632 483.385 88.48 484.729 90.912C486.073 93.344 487.865 95.2 490.105 96.48C492.409 97.76 495.001 98.4 497.881 98.4ZM546.638 108L527.822 56.736H539.15L555.278 101.952H549.902L566.798 56.736H576.878L593.294 101.952H588.014L604.622 56.736H615.278L596.366 108H584.846L569.87 67.968H573.422L558.158 108H546.638ZM633.825 108L615.009 56.736H626.337L642.465 101.952H637.089L653.985 56.736H664.065L680.481 101.952H675.201L691.809 56.736H702.465L683.553 108H672.033L657.057 67.968H660.609L645.345 108H633.825ZM740.706 108V97.632L740.034 95.424V77.28C740.034 73.76 738.978 71.04 736.866 69.12C734.754 67.136 731.554 66.144 727.266 66.144C724.386 66.144 721.538 66.592 718.722 67.488C715.97 68.384 713.634 69.632 711.714 71.232L707.01 62.496C709.762 60.384 713.026 58.816 716.802 57.792C720.642 56.704 724.61 56.16 728.706 56.16C736.13 56.16 741.858 57.952 745.89 61.536C749.986 65.056 752.034 70.528 752.034 77.952V108H740.706ZM724.578 108.672C720.738 108.672 717.378 108.032 714.498 106.752C711.618 105.408 709.378 103.584 707.778 101.28C706.242 98.912 705.474 96.256 705.474 93.312C705.474 90.432 706.146 87.84 707.49 85.536C708.898 83.232 711.17 81.408 714.306 80.064C717.442 78.72 721.602 78.048 726.786 78.048H741.666V86.016H727.65C723.554 86.016 720.802 86.688 719.394 88.032C717.986 89.312 717.282 90.912 717.282 92.832C717.282 95.008 718.146 96.736 719.874 98.016C721.602 99.296 724.002 99.936 727.074 99.936C730.018 99.936 732.642 99.264 734.946 97.92C737.314 96.576 739.01 94.592 740.034 91.968L742.05 99.168C740.898 102.176 738.818 104.512 735.81 106.176C732.866 107.84 729.122 108.672 724.578 108.672ZM767.435 108V36.768H779.435V108H767.435ZM826.769 108V97.632L826.097 95.424V77.28C826.097 73.76 825.041 71.04 822.929 69.12C820.817 67.136 817.617 66.144 813.329 66.144C810.449 66.144 807.601 66.592 804.785 67.488C802.033 68.384 799.697 69.632 797.777 71.232L793.073 62.496C795.825 60.384 799.089 58.816 802.865 57.792C806.705 56.704 810.673 56.16 814.769 56.16C822.193 56.16 827.921 57.952 831.953 61.536C836.049 65.056 838.097 70.528 838.097 77.952V108H826.769ZM810.641 108.672C806.801 108.672 803.441 108.032 800.561 106.752C797.681 105.408 795.441 103.584 793.841 101.28C792.305 98.912 791.537 96.256 791.537 93.312C791.537 90.432 792.209 87.84 793.553 85.536C794.961 83.232 797.233 81.408 800.369 80.064C803.505 78.72 807.665 78.048 812.849 78.048H827.729V86.016H813.713C809.617 86.016 806.865 86.688 805.457 88.032C804.049 89.312 803.345 90.912 803.345 92.832C803.345 95.008 804.209 96.736 805.937 98.016C807.665 99.296 810.065 99.936 813.137 99.936C816.081 99.936 818.705 99.264 821.009 97.92C823.377 96.576 825.073 94.592 826.097 91.968L828.113 99.168C826.961 102.176 824.881 104.512 821.873 106.176C818.929 107.84 815.185 108.672 810.641 108.672Z" fill="#1463A8"/>
<path d="M532.576 163.256C531.445 163.256 530.336 163.139 529.248 162.904C528.181 162.648 527.2 162.317 526.304 161.912C525.429 161.507 524.725 161.048 524.192 160.536L525.6 157.976C526.176 158.488 526.848 158.936 527.616 159.32C528.405 159.704 529.237 160.003 530.112 160.216C531.008 160.429 531.925 160.536 532.864 160.536C534.059 160.536 535.115 160.387 536.032 160.088C536.949 159.789 537.653 159.363 538.144 158.808C538.656 158.232 538.912 157.539 538.912 156.728C538.912 156.067 538.699 155.523 538.272 155.096C537.845 154.669 537.291 154.328 536.608 154.072C535.947 153.795 535.2 153.549 534.368 153.336C533.557 153.101 532.736 152.845 531.904 152.568C531.093 152.269 530.347 151.907 529.664 151.48C529.003 151.053 528.459 150.509 528.032 149.848C527.627 149.165 527.424 148.312 527.424 147.288C527.424 145.859 527.819 144.632 528.608 143.608C529.397 142.563 530.485 141.763 531.872 141.208C533.28 140.632 534.901 140.344 536.736 140.344C538.123 140.344 539.445 140.504 540.704 140.824C541.963 141.144 543.04 141.613 543.936 142.232L542.656 144.856C541.824 144.259 540.885 143.811 539.84 143.512C538.795 143.213 537.707 143.064 536.576 143.064C535.36 143.064 534.304 143.224 533.408 143.544C532.512 143.864 531.819 144.323 531.328 144.92C530.837 145.496 530.581 146.179 530.56 146.968C530.56 147.651 530.763 148.205 531.168 148.632C531.573 149.059 532.117 149.411 532.8 149.688C533.483 149.965 534.229 150.232 535.04 150.488C535.872 150.723 536.693 150.979 537.504 151.256C538.315 151.512 539.061 151.853 539.744 152.28C540.448 152.685 541.003 153.208 541.408 153.848C541.835 154.488 542.048 155.299 542.048 156.28C542.048 157.709 541.643 158.957 540.832 160.024C540.043 161.069 538.933 161.869 537.504 162.424C536.096 162.979 534.453 163.256 532.576 163.256ZM553.059 163.192C551.438 163.192 550.03 162.893 548.835 162.296C547.662 161.677 546.744 160.824 546.083 159.736C545.422 158.627 545.091 157.336 545.091 155.864C545.091 153.944 545.518 152.237 546.371 150.744C547.224 149.229 548.398 148.045 549.891 147.192C551.406 146.317 553.123 145.88 555.043 145.88C556.643 145.88 558.04 146.179 559.235 146.776C560.43 147.373 561.347 148.216 561.987 149.304C562.648 150.392 562.979 151.683 562.979 153.176C562.979 155.096 562.552 156.813 561.699 158.328C560.846 159.821 559.672 161.005 558.179 161.88C556.707 162.755 555 163.192 553.059 163.192ZM553.251 160.504C554.531 160.504 555.672 160.195 556.675 159.576C557.678 158.957 558.456 158.115 559.011 157.048C559.587 155.96 559.875 154.723 559.875 153.336C559.875 151.843 559.438 150.68 558.563 149.848C557.688 148.995 556.44 148.568 554.819 148.568C553.56 148.568 552.43 148.877 551.427 149.496C550.424 150.093 549.635 150.936 549.059 152.024C548.483 153.091 548.195 154.328 548.195 155.736C548.195 157.208 548.632 158.371 549.507 159.224C550.382 160.077 551.63 160.504 553.251 160.504ZM565.852 163L569.596 144.44C569.937 142.733 570.63 141.411 571.676 140.472C572.742 139.533 574.14 139.064 575.868 139.064C576.572 139.064 577.233 139.16 577.852 139.352C578.492 139.523 579.014 139.779 579.42 140.12L578.14 142.392C577.542 141.859 576.785 141.592 575.868 141.592C574.95 141.592 574.214 141.848 573.66 142.36C573.126 142.872 572.753 143.651 572.54 144.696L572.06 146.904L571.9 148.184L568.924 163H565.852ZM565.852 148.568L566.332 146.04H577.18L576.668 148.568H565.852ZM582.853 163.192C581.829 163.192 580.944 162.968 580.197 162.52C579.472 162.072 578.949 161.432 578.629 160.6C578.331 159.768 578.288 158.787 578.501 157.656L581.573 142.328H584.645L581.573 157.592C581.424 158.509 581.509 159.245 581.829 159.8C582.171 160.333 582.8 160.6 583.717 160.6C584.144 160.6 584.571 160.536 584.997 160.408C585.424 160.259 585.808 160.056 586.149 159.8L586.789 162.136C586.213 162.541 585.573 162.819 584.869 162.968C584.187 163.117 583.515 163.192 582.853 163.192ZM577.445 148.568L577.925 146.04H588.773L588.261 148.568H577.445ZM593.743 163L590.511 146.04H593.295L596.143 161.4H594.703L603.471 146.04H606.095L609.007 161.4H607.567L616.239 146.04H619.151L609.647 163H606.639L603.791 148.984H604.719L596.687 163H593.743ZM625.798 163.192C624.368 163.192 623.088 162.904 621.958 162.328C620.827 161.731 619.931 160.888 619.27 159.8C618.63 158.712 618.31 157.4 618.31 155.864C618.31 154.413 618.544 153.08 619.014 151.864C619.504 150.648 620.176 149.592 621.03 148.696C621.904 147.8 622.928 147.107 624.102 146.616C625.275 146.125 626.544 145.88 627.91 145.88C629.382 145.88 630.63 146.136 631.654 146.648C632.678 147.16 633.467 147.917 634.022 148.92C634.576 149.901 634.854 151.107 634.854 152.536C634.854 154.627 634.491 156.483 633.766 158.104C633.04 159.704 631.995 160.952 630.63 161.848C629.286 162.744 627.675 163.192 625.798 163.192ZM626.47 160.504C627.75 160.504 628.891 160.195 629.894 159.576C630.896 158.957 631.675 158.115 632.23 157.048C632.806 155.96 633.094 154.723 633.094 153.336C633.094 151.843 632.656 150.68 631.782 149.848C630.907 148.995 629.659 148.568 628.038 148.568C626.779 148.568 625.648 148.877 624.646 149.496C623.643 150.093 622.854 150.936 622.278 152.024C621.702 153.091 621.414 154.328 621.414 155.736C621.414 157.208 621.851 158.371 622.726 159.224C623.6 160.077 624.848 160.504 626.47 160.504ZM631.366 163L632.262 158.616L633.286 154.68L633.702 150.648L634.598 146.04H637.67L634.31 163H631.366ZM640.154 163L643.514 146.04H646.458L645.498 150.968L645.178 149.752C645.968 148.323 646.97 147.32 648.186 146.744C649.402 146.168 650.906 145.88 652.698 145.88L652.122 148.856C651.994 148.835 651.866 148.824 651.738 148.824C651.61 148.824 651.472 148.824 651.322 148.824C649.637 148.824 648.24 149.283 647.13 150.2C646.042 151.117 645.306 152.557 644.922 154.52L643.226 163H640.154ZM661 163.192C659.336 163.192 657.896 162.893 656.68 162.296C655.464 161.677 654.526 160.824 653.864 159.736C653.203 158.627 652.872 157.325 652.872 155.832C652.872 153.912 653.288 152.205 654.12 150.712C654.952 149.219 656.083 148.045 657.512 147.192C658.963 146.317 660.606 145.88 662.44 145.88C663.976 145.88 665.31 146.179 666.44 146.776C667.571 147.352 668.446 148.184 669.064 149.272C669.704 150.36 670.024 151.672 670.024 153.208C670.024 153.592 670.003 153.987 669.96 154.392C669.918 154.776 669.864 155.139 669.8 155.48H655.112L655.496 153.24H668.328L667.08 154.008C667.272 152.813 667.187 151.811 666.824 151C666.462 150.168 665.886 149.539 665.096 149.112C664.328 148.664 663.4 148.44 662.312 148.44C661.032 148.44 659.902 148.749 658.92 149.368C657.96 149.965 657.214 150.808 656.68 151.896C656.147 152.963 655.88 154.221 655.88 155.672C655.88 157.208 656.318 158.403 657.192 159.256C658.088 160.088 659.443 160.504 661.256 160.504C662.323 160.504 663.315 160.333 664.232 159.992C665.15 159.629 665.907 159.149 666.504 158.552L667.816 160.76C667.006 161.549 665.992 162.157 664.776 162.584C663.56 162.989 662.302 163.192 661 163.192ZM681.477 163L685.957 140.6H694.725C696.986 140.6 698.917 140.984 700.517 141.752C702.117 142.499 703.333 143.555 704.165 144.92C705.018 146.285 705.445 147.907 705.445 149.784C705.445 151.747 705.114 153.549 704.453 155.192C703.791 156.813 702.842 158.211 701.605 159.384C700.389 160.536 698.927 161.432 697.221 162.072C695.514 162.691 693.605 163 691.493 163H681.477ZM685.221 160.216H691.589C693.807 160.216 695.706 159.779 697.285 158.904C698.863 158.008 700.079 156.792 700.933 155.256C701.786 153.699 702.213 151.939 702.213 149.976C702.213 148.632 701.925 147.469 701.349 146.488C700.773 145.485 699.898 144.717 698.725 144.184C697.573 143.651 696.133 143.384 694.405 143.384H688.581L685.221 160.216ZM715.594 163.192C713.93 163.192 712.49 162.893 711.274 162.296C710.058 161.677 709.119 160.824 708.458 159.736C707.797 158.627 707.466 157.325 707.466 155.832C707.466 153.912 707.882 152.205 708.714 150.712C709.546 149.219 710.677 148.045 712.106 147.192C713.557 146.317 715.199 145.88 717.034 145.88C718.57 145.88 719.903 146.179 721.034 146.776C722.165 147.352 723.039 148.184 723.658 149.272C724.298 150.36 724.618 151.672 724.618 153.208C724.618 153.592 724.597 153.987 724.554 154.392C724.511 154.776 724.458 155.139 724.394 155.48H709.706L710.09 153.24H722.922L721.674 154.008C721.866 152.813 721.781 151.811 721.418 151C721.055 150.168 720.479 149.539 719.69 149.112C718.922 148.664 717.994 148.44 716.906 148.44C715.626 148.44 714.495 148.749 713.514 149.368C712.554 149.965 711.807 150.808 711.274 151.896C710.741 152.963 710.474 154.221 710.474 155.672C710.474 157.208 710.911 158.403 711.786 159.256C712.682 160.088 714.037 160.504 715.85 160.504C716.917 160.504 717.909 160.333 718.826 159.992C719.743 159.629 720.501 159.149 721.098 158.552L722.41 160.76C721.599 161.549 720.586 162.157 719.37 162.584C718.154 162.989 716.895 163.192 715.594 163.192ZM731.196 163L727.132 146.04H730.204L733.788 161.4H732.252L742.012 146.04H745.116L734.332 163H731.196ZM752.25 163.192C750.586 163.192 749.146 162.893 747.93 162.296C746.714 161.677 745.776 160.824 745.114 159.736C744.453 158.627 744.122 157.325 744.122 155.832C744.122 153.912 744.538 152.205 745.37 150.712C746.202 149.219 747.333 148.045 748.762 147.192C750.213 146.317 751.856 145.88 753.69 145.88C755.226 145.88 756.56 146.179 757.69 146.776C758.821 147.352 759.696 148.184 760.314 149.272C760.954 150.36 761.274 151.672 761.274 153.208C761.274 153.592 761.253 153.987 761.21 154.392C761.168 154.776 761.114 155.139 761.05 155.48H746.362L746.746 153.24H759.578L758.33 154.008C758.522 152.813 758.437 151.811 758.074 151C757.712 150.168 757.136 149.539 756.346 149.112C755.578 148.664 754.65 148.44 753.562 148.44C752.282 148.44 751.152 148.749 750.17 149.368C749.21 149.965 748.464 150.808 747.93 151.896C747.397 152.963 747.13 154.221 747.13 155.672C747.13 157.208 747.568 158.403 748.442 159.256C749.338 160.088 750.693 160.504 752.506 160.504C753.573 160.504 754.565 160.333 755.482 159.992C756.4 159.629 757.157 159.149 757.754 158.552L759.066 160.76C758.256 161.549 757.242 162.157 756.026 162.584C754.81 162.989 753.552 163.192 752.25 163.192ZM763.717 163L768.453 139.256H771.525L766.789 163H763.717ZM780.59 163.192C778.969 163.192 777.561 162.893 776.366 162.296C775.193 161.677 774.276 160.824 773.614 159.736C772.953 158.627 772.622 157.336 772.622 155.864C772.622 153.944 773.049 152.237 773.902 150.744C774.756 149.229 775.929 148.045 777.422 147.192C778.937 146.317 780.654 145.88 782.574 145.88C784.174 145.88 785.572 146.179 786.766 146.776C787.961 147.373 788.878 148.216 789.518 149.304C790.18 150.392 790.51 151.683 790.51 153.176C790.51 155.096 790.084 156.813 789.23 158.328C788.377 159.821 787.204 161.005 785.71 161.88C784.238 162.755 782.532 163.192 780.59 163.192ZM780.782 160.504C782.062 160.504 783.204 160.195 784.206 159.576C785.209 158.957 785.988 158.115 786.542 157.048C787.118 155.96 787.406 154.723 787.406 153.336C787.406 151.843 786.969 150.68 786.094 149.848C785.22 148.995 783.972 148.568 782.35 148.568C781.092 148.568 779.961 148.877 778.958 149.496C777.956 150.093 777.166 150.936 776.59 152.024C776.014 153.091 775.726 154.328 775.726 155.736C775.726 157.208 776.164 158.371 777.038 159.224C777.913 160.077 779.161 160.504 780.782 160.504ZM802.727 163.192C801.276 163.192 800.028 162.936 798.983 162.424C797.959 161.891 797.169 161.133 796.615 160.152C796.06 159.149 795.783 157.944 795.783 156.536C795.783 154.403 796.145 152.547 796.871 150.968C797.596 149.368 798.631 148.12 799.975 147.224C801.34 146.328 802.961 145.88 804.839 145.88C806.289 145.88 807.569 146.168 808.679 146.744C809.809 147.32 810.695 148.163 811.335 149.272C811.996 150.36 812.327 151.661 812.327 153.176C812.327 154.627 812.081 155.96 811.591 157.176C811.121 158.392 810.449 159.448 809.575 160.344C808.721 161.24 807.708 161.944 806.535 162.456C805.361 162.947 804.092 163.192 802.727 163.192ZM791.719 169.208L796.327 146.04H799.271L798.375 150.424L797.383 154.36L796.935 158.392L794.791 169.208H791.719ZM802.599 160.504C803.879 160.504 805.009 160.195 805.991 159.576C806.993 158.957 807.783 158.115 808.359 157.048C808.935 155.96 809.223 154.723 809.223 153.336C809.223 151.843 808.785 150.68 807.911 149.848C807.036 148.995 805.788 148.568 804.167 148.568C802.908 148.568 801.767 148.877 800.743 149.496C799.74 150.093 798.951 150.936 798.375 152.024C797.82 153.091 797.543 154.328 797.543 155.736C797.543 157.208 797.98 158.371 798.855 159.224C799.729 160.077 800.977 160.504 802.599 160.504ZM822.875 163.192C821.211 163.192 819.771 162.893 818.555 162.296C817.339 161.677 816.401 160.824 815.739 159.736C815.078 158.627 814.747 157.325 814.747 155.832C814.747 153.912 815.163 152.205 815.995 150.712C816.827 149.219 817.958 148.045 819.387 147.192C820.838 146.317 822.481 145.88 824.315 145.88C825.851 145.88 827.185 146.179 828.315 146.776C829.446 147.352 830.321 148.184 830.939 149.272C831.579 150.36 831.899 151.672 831.899 153.208C831.899 153.592 831.878 153.987 831.835 154.392C831.793 154.776 831.739 155.139 831.675 155.48H816.987L817.371 153.24H830.203L828.955 154.008C829.147 152.813 829.062 151.811 828.699 151C828.337 150.168 827.761 149.539 826.971 149.112C826.203 148.664 825.275 148.44 824.187 148.44C822.907 148.44 821.777 148.749 820.795 149.368C819.835 149.965 819.089 150.808 818.555 151.896C818.022 152.963 817.755 154.221 817.755 155.672C817.755 157.208 818.193 158.403 819.067 159.256C819.963 160.088 821.318 160.504 823.131 160.504C824.198 160.504 825.19 160.333 826.107 159.992C827.025 159.629 827.782 159.149 828.379 158.552L829.691 160.76C828.881 161.549 827.867 162.157 826.651 162.584C825.435 162.989 824.177 163.192 822.875 163.192ZM834.342 163L837.702 146.04H840.646L839.686 150.968L839.366 149.752C840.155 148.323 841.158 147.32 842.374 146.744C843.59 146.168 845.094 145.88 846.886 145.88L846.31 148.856C846.182 148.835 846.054 148.824 845.926 148.824C845.798 148.824 845.659 148.824 845.51 148.824C843.824 148.824 842.427 149.283 841.318 150.2C840.23 151.117 839.494 152.557 839.11 154.52L837.414 163H834.342Z" fill="#F6F6F6"/>
</svg>
